<svg width="20" height="20" viewBox="0 0 20 20" fill="none" xmlns="http://www.w3.org/2000/svg">
<path fill-rule="evenodd" clip-rule="evenodd" d="M1.12914 7.89745C1.12914 6.35839 1.65218 4.93952 2.52242 3.80108C3.62859 2.35327 5.30008 1.35839 7.20749 1.16364C7.43451 1.14027 7.66487 1.12914 7.89856 1.12914C8.95688 1.12914 9.95621 1.37953 10.8498 1.81465C13.1067 2.91303 14.6702 5.22329 14.6702 7.89856C14.6702 11.6321 11.6321 14.6702 7.89968 14.6702C6.04012 14.6702 4.35305 13.9168 3.12892 12.6971C3.12447 12.6927 3.11891 12.6905 3.11445 12.6838C3.10666 12.6771 3.1011 12.6704 3.09442 12.6626C1.88142 11.4385 1.12914 9.75367 1.12914 7.89745ZM20 18.4053L14.221 12.6241C14.3412 12.4627 14.458 12.2969 14.566 12.1266C15.3439 10.9036 15.8012 9.45582 15.8012 7.89895C15.8012 3.53661 12.2635 0 7.90007 0C5.21367 0 2.84554 1.3432 1.41776 3.39194C0.526374 4.6706 0 6.22301 0 7.89784C0 12.2635 3.53884 15.799 7.89895 15.799C9.67394 15.799 11.3065 15.2081 12.6241 14.2199L18.4053 20L20 18.4053Z" fill="#A4A4A4"/>
</svg>
